<?xml version="1.0" standalone="no"?>
<!DOCTYPE svg PUBLIC "-//W3C//DTD SVG 20010904//EN"
 "http://www.w3.org/TR/2001/REC-SVG-20010904/DTD/svg10.dtd">
<svg version="1.0" xmlns="http://www.w3.org/2000/svg"
 width="564.000000pt" height="376.000000pt" viewBox="0 0 564.000000 376.000000"
 preserveAspectRatio="xMidYMid meet">

<g transform="translate(0.000000,376.000000) scale(0.100000,-0.100000)"
fill="#000000" stroke="none">
<path d="M1243 3705 c0 -33 2 -45 4 -27 2 18 2 45 0 60 -2 15 -4 0 -4 -33z"/>
<path d="M2170 1880 l0 -1880 40 0 40 0 1 43 c1 36 2 38 9 17 5 -14 8 290 7
674 -2 549 -5 700 -14 704 -16 5 -17 52 -2 52 9 0 10 39 3 153 -5 83 -9 594
-8 1135 l1 982 -39 0 -38 0 0 -1880z m77 -332 c-3 -8 -6 -5 -6 6 -1 11 2 17 5
13 3 -3 4 -12 1 -19z"/>
<path d="M2348 3078 c-1 -376 -1 -1007 0 -1403 1 -396 2 -935 2 -1197 l0 -478
25 0 c27 0 28 4 25 109 -1 36 2 51 9 46 6 -3 11 1 11 9 0 9 -4 16 -10 16 -14
0 -13 43 2 58 7 7 9 12 4 12 -4 0 0 7 9 16 8 9 22 13 30 10 8 -3 15 -1 15 5 0
6 7 8 16 5 13 -5 15 -2 11 14 -4 15 0 20 14 20 10 0 19 6 19 13 0 15 61 11 70
-4 3 -4 12 -4 19 0 19 12 3 34 -20 28 -10 -3 -25 3 -35 14 -11 12 -13 19 -5
19 7 0 9 4 6 10 -3 5 -1 10 4 10 6 0 11 -10 12 -22 0 -13 3 -17 6 -10 4 10 8
10 21 0 14 -11 15 -9 9 20 -7 32 6 45 17 17 3 -8 9 -15 13 -14 4 1 17 1 28 0
16 -1 17 -3 5 -11 -8 -5 -11 -12 -7 -16 4 -4 12 -3 19 4 8 8 21 6 50 -9 22
-11 46 -18 53 -15 9 3 12 0 8 -10 -3 -8 1 -14 10 -14 11 0 14 7 11 25 -5 30
-6 29 34 9 23 -11 45 -13 77 -9 61 10 59 31 -10 74 -30 18 -60 39 -66 47 -6 8
-20 14 -30 14 -20 0 -31 14 -34 45 -3 19 1 21 23 17 26 -5 26 -5 11 18 -9 13
-31 29 -49 35 -40 13 -52 35 -19 35 18 0 20 3 11 12 -7 7 -12 17 -12 22 0 6
10 -4 22 -22 11 -19 24 -29 27 -25 10 15 39 23 43 11 2 -6 10 -9 17 -7 11 4
11 8 -1 20 -9 8 -18 24 -22 36 -7 22 -36 40 -36 22 0 -6 -5 -7 -11 -3 -8 4 -7
9 2 15 11 7 6 16 -21 38 -19 16 -39 29 -44 28 -6 -1 -11 8 -12 19 -3 47 -27
82 -60 89 -17 3 -51 19 -75 35 -24 16 -49 30 -54 30 -6 0 -23 11 -38 26 -15
14 -32 22 -39 18 -6 -4 -9 -3 -5 2 3 5 1 32 -4 59 -10 50 -15 95 -18 148 -1
33 -18 36 -24 5 -2 -13 -5 196 -6 464 -1 378 -4 488 -13 492 -10 5 -10 7 0 12
9 4 12 89 12 373 l0 368 163 -49 c89 -28 170 -53 180 -55 9 -3 17 0 17 6 0 6
-7 11 -15 11 -22 0 -328 100 -339 111 -15 14 -14 13 175 -46 95 -30 182 -55
192 -55 50 0 -2 24 -178 81 l-195 64 0 383 0 382 -25 0 -25 0 -2 -682z m125
-2745 c-7 -2 -21 -2 -30 0 -10 3 -4 5 12 5 17 0 24 -2 18 -5z m-45 -37 c-7 -8
-15 -12 -17 -11 -5 6 10 25 20 25 5 0 4 -6 -3 -14z"/>
<path d="M1240 3135 c0 -258 2 -466 5 -463 7 7 7 920 0 927 -3 2 -5 -206 -5
-464z"/>
<path d="M4830 3391 c-8 -5 -121 -50 -250 -99 -129 -50 -257 -100 -283 -111
-60 -26 -57 -26 -57 3 0 13 -8 27 -17 31 -16 6 -16 8 -3 18 19 16 60 73 60 86
0 25 -83 22 -127 -5 -30 -19 -29 -29 9 -66 27 -26 29 -32 16 -42 -8 -6 -19
-29 -24 -51 -8 -34 -15 -42 -44 -51 -19 -6 -162 -17 -318 -24 -252 -12 -307
-18 -289 -36 6 -7 521 14 560 22 21 5 27 3 27 -10 0 -17 45 -40 61 -30 5 3 9
-1 9 -8 1 -7 30 -44 65 -82 l64 -69 45 13 c26 7 46 17 46 23 0 5 -18 48 -40
94 -50 106 -52 127 -10 118 23 -5 52 4 127 37 54 25 182 78 285 119 103 41
188 77 188 81 0 6 -73 49 -82 48 -2 0 -10 -5 -18 -9z m-620 -115 c0 -3 -4 -8
-10 -11 -5 -3 -10 -1 -10 4 0 6 5 11 10 11 6 0 10 -2 10 -4z m-7 -173 c-7 -2
-19 -2 -25 0 -7 3 -2 5 12 5 14 0 19 -2 13 -5z"/>
<path d="M2262 3350 c0 -14 2 -19 5 -12 2 6 2 18 0 25 -3 6 -5 1 -5 -13z"/>
<path d="M2416 3323 c-3 -4 -6 -17 -6 -31 0 -17 4 -23 15 -18 9 3 15 0 15 -8
0 -8 24 -20 58 -30 113 -31 121 -17 25 40 -77 46 -99 55 -107 47z"/>
<path d="M3265 3056 c-26 -19 -8 -39 31 -34 21 2 29 8 29 23 0 25 -33 31 -60
11z"/>
<path d="M5535 2944 c-38 -8 -93 -19 -122 -25 l-52 -10 4 -839 c2 -462 1 -841
-3 -844 -6 -3 -193 22 -198 27 -1 1 -4 37 -5 80 -2 43 -7 81 -11 83 -4 3 -14
-9 -23 -26 -43 -84 -169 -170 -247 -170 -25 0 -28 -4 -28 -32 0 -34 -28 -97
-79 -183 -17 -27 -40 -67 -51 -88 -12 -22 -38 -58 -59 -80 -21 -23 -54 -64
-74 -91 -21 -27 -50 -57 -65 -66 -15 -10 -69 -57 -120 -106 -98 -93 -212 -174
-247 -174 -11 0 -27 -5 -35 -10 -11 -7 -4 -10 26 -10 84 0 102 9 192 99 48 47
91 85 95 83 5 -1 6 2 2 8 -3 5 1 13 9 16 9 3 16 12 16 19 0 14 37 31 47 22 2
-3 -5 -15 -16 -26 -12 -12 -19 -21 -16 -21 3 0 -22 -36 -56 -80 -33 -44 -65
-80 -70 -80 -5 0 -8 -5 -7 -11 2 -6 -3 -14 -11 -17 -9 -3 -11 0 -6 8 5 8 4 11
-3 6 -6 -4 -9 -12 -6 -19 2 -7 -10 -28 -28 -47 -64 -69 -69 -81 -75 -216 l-5
-124 147 0 c123 0 146 2 142 14 -3 8 1 17 9 20 8 3 14 15 14 26 0 23 4 24 31
10 24 -13 25 -2 2 16 -17 13 -17 15 0 28 9 7 17 21 17 30 0 9 7 16 16 16 10 0
13 6 10 18 -7 21 13 54 21 35 2 -7 9 -13 15 -13 7 0 6 5 -1 14 -16 19 4 60 25
52 8 -3 17 1 20 9 4 8 11 15 16 15 6 0 8 -7 4 -15 -3 -8 -1 -15 4 -15 6 0 10
9 10 19 0 11 5 23 10 26 15 9 12 25 -6 25 -8 0 -12 -5 -9 -10 3 -6 2 -10 -4
-10 -13 0 -7 53 8 58 6 2 11 10 11 18 0 8 5 14 10 14 6 0 9 3 8 8 -6 17 25 70
43 75 13 3 17 11 13 21 -4 11 -1 16 10 16 9 0 17 5 17 10 1 6 3 15 4 20 1 6 3
17 4 26 0 8 5 13 10 10 5 -3 14 0 20 8 9 11 9 15 0 18 -8 3 -9 9 -4 19 10 15
11 20 13 97 2 44 5 54 24 61 l22 8 -22 12 c-12 6 -22 17 -22 24 0 8 4 7 11 -3
8 -11 12 -12 16 -2 2 6 17 11 31 11 17 -1 21 -3 10 -6 -10 -2 -18 -9 -18 -14
0 -13 12 -11 37 6 12 8 28 12 36 9 9 -3 16 3 20 15 5 22 41 29 52 11 4 -6 11
-8 16 -4 6 3 5 12 -3 22 -11 13 -11 14 8 4 12 -6 25 -7 30 -3 5 5 18 11 29 14
20 5 20 5 0 11 -22 8 -48 53 -35 61 4 3 10 -4 13 -15 3 -11 10 -20 16 -20 16
0 14 19 -4 36 -8 9 -15 20 -15 25 0 15 20 10 26 -6 10 -24 37 -19 29 5 -4 12
-1 27 5 35 7 8 9 15 6 15 -4 0 -1 6 7 14 9 9 24 12 38 9 22 -6 23 -5 10 11 -8
9 -20 15 -27 12 -7 -3 -16 -1 -19 3 -2 5 4 11 15 14 17 4 19 9 10 32 -6 15 -8
30 -5 35 3 5 -5 16 -17 25 -20 13 -21 17 -8 25 8 6 31 8 50 5 19 -2 56 -7 82
-11 l47 -6 -6 -67 c-8 -91 -6 -133 6 -140 15 -10 21 -60 8 -68 -16 -10 38 -19
80 -15 18 2 30 8 27 13 -3 5 4 9 15 9 23 0 28 -15 9 -23 -8 -3 -6 -6 5 -6 9
-1 17 -8 17 -17 0 -11 -6 -15 -20 -11 -11 3 -18 1 -14 -4 3 -5 14 -9 26 -9 17
0 18 -2 8 -15 -11 -13 -10 -14 6 -8 17 6 17 5 5 -10 -24 -30 -2 -32 25 -2 14
15 19 25 11 22 -21 -8 -40 16 -25 31 8 8 7 13 -5 18 -9 3 -17 12 -17 20 0 7
-12 20 -27 28 l-28 15 38 1 c33 0 38 -3 32 -19 -7 -23 12 -38 28 -22 6 6 24
11 39 11 34 0 37 22 6 38 l-23 11 23 0 c26 1 30 21 5 21 -17 1 -17 1 0 14 9 7
17 26 17 41 0 25 -3 27 -30 23 -40 -6 -38 7 3 21 24 9 29 14 18 21 -13 7 -13
11 0 26 8 10 9 15 2 11 -6 -4 -14 -3 -17 2 -3 5 1 11 9 15 23 9 21 125 -2 132
-10 3 -25 8 -33 12 -8 3 -18 4 -22 4 -5 -1 -8 5 -8 14 0 12 7 15 25 12 20 -4
28 1 40 25 14 29 14 29 -10 25 -14 -3 -25 -1 -25 3 0 5 11 9 25 9 14 0 25 5
25 10 0 6 -11 10 -23 10 -30 0 -40 10 -26 27 9 10 7 13 -6 13 -11 0 -15 5 -11
15 3 8 2 15 -2 15 -4 0 -7 97 -7 215 0 206 -1 214 -20 218 -15 3 -12 6 13 12
32 7 39 29 11 31 -8 1 -20 2 -27 3 -10 1 -12 59 -9 289 2 158 6 295 8 305 3
10 12 23 20 28 10 6 10 9 2 9 -9 0 -13 22 -13 75 0 78 -7 97 -63 162 -22 25
-24 24 86 43 61 11 67 15 67 36 0 28 -5 28 -105 8z m-58 -383 c-2 -21 -1 -45
4 -52 6 -10 9 -3 9 21 0 25 3 31 10 20 12 -19 13 -733 0 -725 -5 3 -11 1 -15
-5 -4 -6 -11 -8 -16 -5 -5 4 -10 -4 -11 -17 -1 -13 -5 51 -8 142 -6 200 2 630
13 648 15 22 20 13 14 -27z m76 -693 c-8 -62 -23 -71 -23 -14 0 29 4 45 10 41
6 -3 10 -1 10 4 0 6 2 11 4 11 2 0 2 -19 -1 -42z m-52 -93 c1 16 2 17 6 3 2
-9 -5 -26 -16 -37 l-21 -21 0 43 c1 41 1 42 15 17 13 -23 14 -23 16 -5z m-366
-503 c-3 -3 -11 0 -18 8 -9 10 -9 11 1 6 9 -5 12 5 14 36 l1 43 4 -44 c3 -23
2 -46 -2 -49z m345 -88 c0 -8 4 -13 9 -10 5 3 11 -1 15 -9 4 -12 -20 -35 -37
-35 -8 0 -15 53 -10 67 6 16 23 7 23 -13z m-632 -141 c-10 -2 -18 -9 -18 -14
0 -6 -5 -7 -11 -3 -14 8 8 24 31 23 11 -1 10 -3 -2 -6z m772 -83 c0 -5 -4 -10
-10 -10 -5 0 -10 5 -10 10 0 6 5 10 10 10 6 0 10 -4 10 -10z m-505 -60 c4 -7
-3 -8 -22 -4 -38 9 -42 14 -10 14 14 0 29 -5 32 -10z m-431 -72 c-10 -12 -25
-28 -31 -36 -7 -7 -13 -17 -13 -20 0 -4 -9 -13 -21 -20 -19 -12 -19 -11 -9 8
6 11 16 20 22 20 6 0 9 3 5 6 -3 3 9 19 26 35 38 34 47 37 21 7z m-124 -152
c0 -3 -4 -8 -10 -11 -5 -3 -10 -1 -10 4 0 6 5 11 10 11 6 0 10 -2 10 -4z
m-230 -446 c0 -5 -2 -10 -4 -10 -3 0 -8 5 -11 10 -3 6 -1 10 4 10 6 0 11 -4
11 -10z"/>
<path d="M1252 1774 c1 -491 5 -723 9 -614 10 265 12 420 5 427 -10 10 -7 61
4 65 6 2 7 14 1 35 -5 17 -10 220 -10 449 -1 230 -4 420 -6 423 -3 2 -4 -351
-3 -785z"/>
<path d="M3240 2379 c-11 -8 -12 -12 -2 -16 6 -2 9 -10 6 -15 -5 -7 -2 -8 6
-3 10 6 12 4 6 -11 -6 -15 -5 -16 5 -7 10 10 9 15 0 27 -7 8 -10 20 -6 26 8
13 4 13 -15 -1z"/>
<path d="M4298 2383 c7 -3 16 -2 19 1 4 3 -2 6 -13 5 -11 0 -14 -3 -6 -6z"/>
<path d="M3296 2367 c3 -10 1 -17 -5 -17 -8 0 -7 -6 1 -20 7 -11 17 -20 22
-20 6 0 5 5 -2 12 -16 16 -15 31 2 25 8 -3 19 0 26 7 8 10 7 15 -4 19 -11 4
-13 1 -9 -11 5 -15 3 -14 -16 2 -18 17 -21 17 -15 3z"/>
<path d="M3180 2355 c-11 -13 -10 -14 4 -9 9 3 16 10 16 15 0 13 -6 11 -20 -6z"/>
<path d="M3400 2341 c0 -5 5 -13 10 -16 6 -3 10 -2 10 4 0 5 -4 13 -10 16 -5
3 -10 2 -10 -4z"/>
<path d="M3390 2311 c0 -5 5 -13 10 -16 6 -3 10 -2 10 4 0 5 -4 13 -10 16 -5
3 -10 2 -10 -4z"/>
<path d="M5553 2160 c0 -91 2 -149 6 -130 3 19 3 94 0 165 l-5 130 -1 -165z"/>
<path d="M3150 2301 c0 -5 5 -13 10 -16 6 -3 10 -2 10 4 0 5 -4 13 -10 16 -5
3 -10 2 -10 -4z"/>
<path d="M3180 2289 c0 -6 5 -7 10 -4 6 3 10 1 10 -5 0 -6 5 -8 10 -5 16 10
11 21 -10 22 -11 1 -20 -3 -20 -8z"/>
<path d="M3227 2273 c-4 -3 -7 -11 -7 -17 0 -6 5 -5 12 2 6 6 9 14 7 17 -3 3
-9 2 -12 -2z"/>
<path d="M3255 2270 c3 -5 8 -10 11 -10 2 0 4 5 4 10 0 6 -5 10 -11 10 -5 0
-7 -4 -4 -10z"/>
<path d="M3285 2270 c3 -5 8 -10 11 -10 2 0 4 5 4 10 0 6 -5 10 -11 10 -5 0
-7 -4 -4 -10z"/>
<path d="M3391 2264 c0 -11 3 -14 6 -6 3 7 2 16 -1 19 -3 4 -6 -2 -5 -13z"/>
<path d="M3241 2234 c0 -11 3 -14 6 -6 3 7 2 16 -1 19 -3 4 -6 -2 -5 -13z"/>
<path d="M3205 2230 c-3 -5 -1 -10 4 -10 6 0 11 5 11 10 0 6 -2 10 -4 10 -3 0
-8 -4 -11 -10z"/>
<path d="M3305 2230 c3 -5 8 -10 11 -10 2 0 4 5 4 10 0 6 -5 10 -11 10 -5 0
-7 -4 -4 -10z"/>
<path d="M4285 2209 c-16 -6 -14 -8 13 -8 33 -1 41 4 20 12 -7 2 -22 1 -33 -4z"/>
<path d="M3220 2200 c0 -5 5 -10 10 -10 6 0 10 5 10 10 0 6 -4 10 -10 10 -5 0
-10 -4 -10 -10z"/>
<path d="M3255 2200 c-3 -5 -1 -10 4 -10 6 0 11 5 11 10 0 6 -2 10 -4 10 -3 0
-8 -4 -11 -10z"/>
<path d="M3290 2200 c0 -5 5 -10 11 -10 5 0 7 5 4 10 -3 6 -8 10 -11 10 -2 0
-4 -4 -4 -10z"/>
<path d="M3320 2200 c0 -5 5 -10 11 -10 5 0 7 5 4 10 -3 6 -8 10 -11 10 -2 0
-4 -4 -4 -10z"/>
<path d="M4465 2200 l-100 -5 -1 -110 -2 -110 -153 -6 c-85 -4 -184 -7 -221
-8 -56 -1 -68 -4 -68 -18 0 -15 38 -16 503 -10 276 4 523 7 550 7 40 0 47 3
47 20 0 19 -5 19 -155 13 -129 -5 -155 -4 -156 8 0 8 -2 23 -5 34 -2 11 -7 49
-11 84 -5 37 -13 66 -20 69 -7 2 -13 -3 -13 -12 0 -13 -3 -14 -19 -4 -11 7
-24 21 -30 33 -10 19 -10 19 -7 -3 1 -13 9 -28 17 -33 12 -7 12 -9 -1 -10 -10
0 -7 -4 7 -11 27 -13 38 -55 24 -91 -6 -15 -7 -27 -1 -27 5 0 12 10 16 22 l7
23 8 -24 c11 -29 3 -43 -22 -36 -13 4 -19 2 -19 -9 0 -11 -9 -16 -30 -16 l-30
0 0 114 c0 63 -3 116 -7 118 -5 2 -53 1 -108 -2z m95 -115 l0 -105 -90 0 -90
0 0 99 0 100 28 4 c15 2 55 5 90 6 l62 1 0 -105z"/>
<path d="M4470 2121 c0 -5 7 -11 15 -15 9 -3 15 0 15 9 0 8 -7 15 -15 15 -8 0
-15 -4 -15 -9z"/>
<path d="M4434 2094 c4 -16 12 -33 18 -39 8 -7 9 -5 5 7 -5 13 -2 15 11 10 16
-6 16 -4 1 18 -24 37 -43 39 -35 4z"/>
<path d="M4170 2135 l0 -66 81 3 81 3 2 53 1 52 -45 0 c-25 0 -52 6 -58 12
-10 10 -15 10 -23 -2 -8 -11 -12 -12 -16 -2 -12 31 -23 6 -23 -53z m150 10 c0
-10 -11 -15 -35 -15 -24 0 -35 5 -35 15 0 10 11 15 35 15 24 0 35 -5 35 -15z"/>
<path d="M3290 2130 c-90 -3 -150 -9 -142 -13 12 -8 301 -1 310 7 9 10 -24 11
-168 6z"/>
<path d="M2649 1948 c-9 -12 -22 -39 -29 -58 -8 -19 -33 -64 -56 -100 -71
-111 -76 -162 -20 -215 49 -47 70 -78 72 -103 1 -32 22 -40 114 -41 74 -1 84
4 88 39 1 14 7 45 12 70 11 59 10 80 -7 80 -10 0 -11 -4 -1 -19 9 -14 8 -26
-2 -50 -16 -40 -32 -39 -48 1 -11 30 -12 31 -31 14 -18 -17 -19 -16 -23 26 -2
24 -1 57 3 75 7 33 -2 43 -42 43 -26 0 -24 17 4 26 21 7 21 7 2 15 -17 7 -18
8 -2 8 16 1 16 3 1 26 -16 25 -12 45 9 45 18 0 9 91 -12 119 l-17 23 -15 -24z
m114 -435 c-7 -2 -19 -2 -25 0 -7 3 -2 5 12 5 14 0 19 -2 13 -5z"/>
<path d="M968 1923 c6 -2 18 -2 25 0 6 3 1 5 -13 5 -14 0 -19 -2 -12 -5z"/>
<path d="M3608 1873 c-4 -108 0 -123 38 -165 22 -25 34 -47 31 -58 -4 -14 4
-19 41 -24 24 -3 60 -6 80 -6 29 0 34 3 29 19 -4 17 3 19 82 20 81 2 111 8 84
18 -7 3 -13 11 -13 19 0 27 -41 99 -73 128 -18 15 -62 43 -99 62 l-67 34 -3
-30 -3 -29 -41 29 c-23 15 -51 31 -63 35 -20 6 -21 3 -23 -52z m144 -165 c-7
-7 -12 -8 -12 -2 0 14 12 26 19 19 2 -3 -1 -11 -7 -17z m21 -29 c-8 -8 -13 -7
-18 2 -5 8 -4 10 3 5 7 -4 12 -2 12 5 0 7 3 9 7 6 4 -4 2 -12 -4 -18z m19 -21
c-7 -7 -12 -8 -12 -2 0 14 12 26 19 19 2 -3 -1 -11 -7 -17z"/>
<path d="M2970 1894 c0 -8 -4 -12 -10 -9 -6 3 -7 -1 -4 -9 9 -25 29 -19 32 9
1 14 -3 25 -8 25 -6 0 -10 -7 -10 -16z"/>
<path d="M3178 1892 c-117 -3 -114 -1 -99 -66 9 -37 46 -82 85 -103 21 -12 50
-84 36 -93 -5 -3 -13 -18 -19 -33 -9 -23 -8 -27 7 -27 16 0 147 -13 245 -25
46 -6 48 -5 45 17 -3 21 -10 24 -72 30 -86 8 -116 16 -116 28 0 6 5 10 10 10
6 0 21 7 34 15 23 15 23 17 9 46 -8 17 -16 41 -17 55 0 13 -4 24 -7 24 -4 0
-9 27 -13 60 -4 33 -10 61 -14 62 -4 2 -55 2 -114 0z"/>
<path d="M3385 1890 c28 -12 57 -12 50 0 -3 6 -21 10 -38 9 -27 0 -29 -2 -12
-9z"/>
<path d="M3508 1893 c7 -3 16 -2 19 1 4 3 -2 6 -13 5 -11 0 -14 -3 -6 -6z"/>
<path d="M2710 1875 c0 -8 4 -15 10 -15 5 0 7 7 4 15 -4 8 -8 15 -10 15 -2 0
-4 -7 -4 -15z"/>
<path d="M710 1871 c0 -6 4 -13 10 -16 6 -3 7 1 4 9 -7 18 -14 21 -14 7z"/>
<path d="M905 1870 c27 -12 35 -12 35 0 0 6 -12 10 -27 9 -25 0 -26 -1 -8 -9z"/>
<path d="M2450 1876 c0 -9 40 -13 46 -5 3 5 -6 9 -20 9 -14 0 -26 -2 -26 -4z"/>
<path d="M553 1845 c-3 -9 -3 -18 -1 -21 3 -3 8 4 11 16 6 23 -1 27 -10 5z"/>
<path d="M755 1839 c-4 -6 -5 -13 -2 -16 7 -7 27 6 27 18 0 12 -17 12 -25 -2z"/>
<path d="M835 1840 c-2 -4 9 -7 25 -8 17 0 30 2 30 6 0 10 -49 12 -55 2z"/>
<path d="M2725 1839 c-4 -6 -4 -13 -1 -16 3 -4 6 -1 6 6 0 7 5 9 12 5 7 -4 8
-3 4 4 -9 15 -13 15 -21 1z"/>
<path d="M2943 1835 c-9 -25 4 -29 17 -6 7 15 7 21 0 21 -6 0 -13 -7 -17 -15z"/>
<path d="M2755 1810 c3 -5 8 -10 11 -10 2 0 4 5 4 10 0 6 -5 10 -11 10 -5 0
-7 -4 -4 -10z"/>
<path d="M689 1802 c-10 -4 -14 -13 -10 -24 5 -15 8 -13 18 7 6 14 10 25 10
24 -1 0 -9 -3 -18 -7z"/>
<path d="M2726 1793 c-6 -14 -5 -15 5 -6 7 7 10 15 7 18 -3 3 -9 -2 -12 -12z"/>
<path d="M588 1777 c4 -17 6 -17 23 -1 11 10 19 12 19 6 0 -7 5 -12 10 -12 6
0 10 6 10 14 0 10 -10 14 -33 13 -27 -2 -33 -6 -29 -20z"/>
<path d="M463 1778 c2 -7 11 -12 20 -12 10 1 24 2 32 3 32 2 13 21 -21 21 -24
0 -34 -4 -31 -12z"/>
<path d="M550 1780 c0 -5 5 -10 10 -10 6 0 10 5 10 10 0 6 -4 10 -10 10 -5 0
-10 -4 -10 -10z"/>
<path d="M1042 1778 c-7 -7 -12 -20 -12 -31 0 -30 34 -16 38 16 4 29 -6 35
-26 15z"/>
<path d="M2909 1766 c-7 -14 -15 -26 -18 -26 -3 0 -16 -8 -29 -18 -20 -16 -22
-21 -12 -43 6 -13 34 -42 61 -63 27 -22 49 -45 49 -53 0 -7 7 -16 16 -20 15
-6 15 -8 -2 -20 -15 -11 -15 -13 -2 -13 9 0 38 -7 66 -16 58 -19 122 -12 122
13 0 10 -6 13 -16 9 -10 -4 -13 -2 -8 6 7 11 -10 9 -48 -7 -13 -5 -18 -2 -18
9 0 9 -11 22 -25 28 -14 6 -25 15 -25 20 0 4 -13 20 -30 35 -16 14 -30 30 -30
35 0 5 -11 21 -24 35 -17 18 -31 24 -45 20 -12 -3 -21 -1 -21 3 0 16 62 70 72
64 6 -4 9 -1 6 6 -8 24 -27 22 -39 -4z"/>
<path d="M1080 1750 c0 -11 5 -20 10 -20 6 0 10 9 10 20 0 11 -4 20 -10 20 -5
0 -10 -9 -10 -20z"/>
<path d="M585 1750 c-18 -8 -17 -9 8 -9 15 -1 27 4 27 9 0 12 -8 12 -35 0z"/>
<path d="M930 1740 c0 -6 4 -9 9 -6 5 4 12 1 14 -4 3 -6 4 -5 3 2 -3 15 -26
23 -26 8z"/>
<path d="M980 1730 c0 -6 7 -10 15 -10 8 0 15 2 15 4 0 2 -7 6 -15 10 -8 3
-15 1 -15 -4z"/>
<path d="M683 1690 c0 -25 2 -35 4 -22 2 12 2 32 0 45 -2 12 -4 2 -4 -23z"/>
<path d="M160 1680 c0 -19 3 -21 12 -12 9 9 9 15 0 24 -9 9 -12 7 -12 -12z"/>
<path d="M2758 1683 c7 -3 16 -2 19 1 4 3 -2 6 -13 5 -11 0 -14 -3 -6 -6z"/>
<path d="M2820 1650 c0 -6 7 -10 15 -10 8 0 15 2 15 4 0 2 -7 6 -15 10 -8 3
-15 1 -15 -4z"/>
<path d="M778 1616 c-2 -20 0 -36 4 -36 4 0 8 -8 9 -17 1 -10 5 0 10 21 7 31
6 43 -5 54 -12 12 -14 9 -18 -22z"/>
<path d="M4535 1631 c-27 -10 -57 -20 -65 -23 -23 -9 -102 -27 -135 -31 -16
-2 13 -4 65 -4 69 0 84 2 55 7 -29 5 -33 8 -15 9 32 3 50 7 73 16 12 5 17 2
17 -9 0 -9 5 -16 11 -16 5 0 7 5 4 10 -3 6 0 10 9 10 8 0 17 -6 19 -12 3 -8 6
-6 6 5 1 9 8 17 17 17 8 0 12 -4 9 -10 -3 -5 -2 -10 4 -10 5 0 17 -3 25 -6 12
-5 15 -2 10 11 -6 13 -2 16 21 13 44 -5 41 -25 -5 -33 -22 -4 -38 -10 -35 -15
11 -19 245 57 245 79 0 4 -64 7 -142 8 -113 1 -154 -2 -193 -16z m234 -25
c-12 -10 -60 -16 -54 -6 3 5 18 10 32 10 15 0 24 -2 22 -4z"/>
<path d="M2801 1584 c0 -11 3 -14 6 -6 3 7 2 16 -1 19 -3 4 -6 -2 -5 -13z"/>
<path d="M4668 1593 c7 -3 16 -2 19 1 4 3 -2 6 -13 5 -11 0 -14 -3 -6 -6z"/>
<path d="M557 1560 c6 -21 74 -46 100 -36 21 9 5 28 -18 21 -13 -4 -19 -2 -19
8 0 8 -10 17 -22 21 -38 10 -46 7 -41 -14z"/>
<path d="M705 1570 c3 -5 8 -10 11 -10 2 0 4 5 4 10 0 6 -5 10 -11 10 -5 0 -7
-4 -4 -10z"/>
<path d="M1322 1555 c0 -16 2 -22 5 -12 2 9 2 23 0 30 -3 6 -5 -1 -5 -18z"/>
<path d="M4279 1560 c-7 -5 -11 -11 -8 -14 9 -9 334 -23 343 -14 19 16 -4 19
-150 24 -82 3 -154 6 -160 8 -6 2 -17 0 -25 -4z"/>
<path d="M930 1536 c0 -2 7 -6 15 -10 8 -3 15 -1 15 4 0 6 -7 10 -15 10 -8 0
-15 -2 -15 -4z"/>
<path d="M975 1500 c-3 -5 1 -10 10 -10 9 0 13 5 10 10 -3 6 -8 10 -10 10 -2
0 -7 -4 -10 -10z"/>
<path d="M1322 1480 c0 -14 2 -19 5 -12 2 6 2 18 0 25 -3 6 -5 1 -5 -13z"/>
<path d="M4260 1482 c0 -15 9 -21 34 -26 26 -5 242 -23 299 -26 4 0 7 11 7 24
0 26 -6 27 -237 42 -99 6 -103 6 -103 -14z"/>
<path d="M1710 1480 c0 -5 5 -10 11 -10 5 0 7 5 4 10 -3 6 -8 10 -11 10 -2 0
-4 -4 -4 -10z"/>
<path d="M4038 1478 c6 -6 18 -8 28 -6 14 3 12 5 -9 10 -19 3 -25 2 -19 -4z"/>
<path d="M541 1464 c0 -11 3 -14 6 -6 3 7 2 16 -1 19 -3 4 -6 -2 -5 -13z"/>
<path d="M580 1465 c0 -8 6 -15 14 -15 22 0 28 17 10 24 -22 9 -24 8 -24 -9z"/>
<path d="M3997 1459 c12 -4 66 -10 120 -12 54 -2 73 -2 43 0 -30 2 -49 7 -43
11 6 4 -24 8 -66 8 -50 1 -68 -1 -54 -7z"/>
<path d="M1290 1428 c0 -12 3 -18 7 -14 11 10 12 36 2 36 -5 0 -9 -10 -9 -22z"/>
<path d="M3945 1442 c48 -22 374 -46 391 -29 4 4 -22 7 -57 7 -35 0 -102 4
-149 10 -179 19 -205 21 -185 12z"/>
<path d="M1323 1395 c0 -27 2 -38 4 -22 2 15 2 37 0 50 -2 12 -4 0 -4 -28z"/>
<path d="M1710 1433 c0 -5 5 -15 10 -23 8 -12 10 -11 10 8 0 12 -4 22 -10 22
-5 0 -10 -3 -10 -7z"/>
<path d="M4283 1433 c9 -2 23 -2 30 0 6 3 -1 5 -18 5 -16 0 -22 -2 -12 -5z"/>
<path d="M4345 1430 c3 -5 10 -10 16 -10 5 0 9 5 9 10 0 6 -7 10 -16 10 -8 0
-12 -4 -9 -10z"/>
<path d="M3895 1422 c11 -12 122 -28 255 -37 61 -5 81 -3 70 4 -8 6 -37 11
-65 11 -47 1 -123 9 -225 25 -31 5 -42 4 -35 -3z"/>
<path d="M772 1405 c-11 -13 -9 -15 14 -15 22 0 25 2 14 15 -15 18 -12 18 -28
0z"/>
<path d="M3845 1402 c11 -11 132 -28 275 -38 52 -4 98 -11 101 -17 8 -11 29
-1 29 14 0 5 -28 9 -62 9 -57 0 -219 19 -315 36 -26 4 -35 3 -28 -4z"/>
<path d="M230 1384 c0 -8 5 -12 10 -9 6 4 8 11 5 16 -9 14 -15 11 -15 -7z"/>
<path d="M4256 1381 c10 -10 23 -15 28 -11 13 12 -3 30 -26 30 -21 0 -21 0 -2
-19z"/>
<path d="M3791 1381 c23 -15 128 -29 249 -35 114 -6 85 1 -100 24 -52 6 -111
13 -130 16 -26 4 -31 2 -19 -5z"/>
<path d="M3720 1366 c0 -10 72 -25 170 -36 52 -5 116 -12 143 -15 29 -4 47 -2
47 5 0 5 -23 10 -52 10 -29 0 -96 7 -148 16 -153 26 -160 26 -160 20z"/>
<path d="M3660 1350 c-25 -16 133 -46 293 -56 78 -5 110 -10 115 -21 7 -12 10
-12 21 1 18 21 13 22 -144 35 -71 6 -163 19 -202 29 -40 10 -77 15 -83 12z"/>
<path d="M4166 1335 c4 -8 12 -15 20 -15 8 0 14 7 14 15 0 8 -9 15 -20 15 -13
0 -18 -5 -14 -15z"/>
<path d="M430 1331 c0 -6 4 -13 10 -16 6 -3 7 1 4 9 -7 18 -14 21 -14 7z"/>
<path d="M3586 1332 c-11 -19 242 -64 339 -61 22 1 -7 8 -65 15 -100 13 -216
35 -251 49 -10 3 -20 2 -23 -3z"/>
<path d="M4110 1323 c1 -19 16 -31 29 -24 7 5 10 14 7 20 -8 12 -36 15 -36 4z"/>
<path d="M3513 1313 c9 -14 122 -40 227 -52 47 -6 100 -13 118 -17 19 -4 32
-3 32 4 0 5 -33 13 -72 17 -61 6 -185 28 -287 52 -15 4 -22 2 -18 -4z"/>
<path d="M1710 1300 c0 -5 5 -10 10 -10 6 0 10 5 10 10 0 6 -4 10 -10 10 -5 0
-10 -4 -10 -10z"/>
<path d="M3436 1292 c-6 -10 155 -46 254 -57 30 -3 70 -8 88 -11 19 -4 32 -2
32 4 0 5 -33 13 -72 17 -63 6 -203 32 -274 51 -12 3 -24 2 -28 -4z"/>
<path d="M3360 1271 c0 -17 273 -71 360 -71 60 0 27 9 -117 30 -77 11 -160 27
-183 35 -49 17 -60 18 -60 6z"/>
<path d="M3990 1274 c0 -3 7 -12 16 -21 12 -12 18 -13 27 -4 9 9 8 14 -3 21
-17 11 -40 13 -40 4z"/>
<path d="M3270 1247 c0 -15 354 -81 394 -74 15 2 11 5 -14 10 -368 69 -380 71
-380 64z"/>
<path d="M3930 1243 c8 -3 18 -10 21 -16 8 -12 31 1 24 14 -4 5 -18 9 -33 8
-16 0 -21 -3 -12 -6z"/>
<path d="M192 1200 c0 -19 2 -27 5 -17 2 9 2 25 0 35 -3 9 -5 1 -5 -18z"/>
<path d="M3176 1217 c-11 -8 -15 -17 -9 -20 5 -3 68 -18 139 -32 164 -33 326
-74 338 -85 4 -4 -2 -11 -14 -15 -17 -6 -19 -9 -9 -16 14 -9 37 11 58 49 16
30 6 42 -32 42 -45 0 -399 68 -437 84 -9 4 -24 0 -34 -7z"/>
<path d="M3869 1217 c6 -8 7 -17 3 -22 -4 -4 2 -6 13 -3 11 2 21 11 23 21 3
13 -3 17 -23 17 -22 0 -25 -3 -16 -13z"/>
<path d="M777 1209 c7 -7 15 -10 18 -7 3 3 -2 9 -12 12 -14 6 -15 5 -6 -5z"/>
<path d="M707 1203 c-11 -11 -8 -208 3 -219 7 -7 6 -19 -4 -39 l-15 -28 -4 34
c-2 19 -4 8 -4 -26 -1 -44 1 -53 7 -35 6 18 8 4 9 -47 1 -48 -3 -73 -11 -76
-10 -4 -10 -8 0 -15 8 -5 13 -12 13 -16 -4 -31 1 -45 14 -40 8 4 12 11 8 18
-13 20 -11 147 3 142 7 -3 10 2 7 15 -4 13 0 19 11 19 10 0 16 -8 16 -21 0
-12 5 -19 13 -16 6 2 11 10 9 16 -1 7 -2 22 -2 34 1 12 1 34 1 50 1 15 7 27
14 27 8 0 17 5 21 12 5 8 0 9 -15 5 -20 -5 -21 -2 -17 24 2 17 12 42 22 57 16
25 18 25 25 7 7 -18 8 -17 8 6 1 14 12 40 26 59 14 19 25 35 25 36 0 1 -9 4
-21 7 -15 4 -17 2 -10 -6 6 -8 -2 -25 -28 -55 -20 -23 -40 -42 -44 -42 -4 0
-7 14 -7 32 0 43 -18 24 -22 -24 -5 -56 -24 -34 -32 36 -6 58 -6 59 12 43 21
-19 40 -24 20 -4 -29 27 -45 37 -51 30z m48 -196 c0 -61 -17 -55 -22 7 -4 37
-1 47 9 44 8 -3 13 -22 13 -51z m-2 -88 c-4 -13 -9 -17 -15 -11 -11 11 -3 32
12 32 4 0 6 -9 3 -21z"/>
<path d="M911 1194 c0 -11 3 -14 6 -6 3 7 2 16 -1 19 -3 4 -6 -2 -5 -13z"/>
<path d="M3803 1186 c9 -18 15 -22 24 -14 21 17 15 38 -11 38 -22 0 -23 -2
-13 -24z"/>
<path d="M682 1180 c0 -14 2 -19 5 -12 2 6 2 18 0 25 -3 6 -5 1 -5 -13z"/>
<path d="M947 1173 c-2 -10 -5 -31 -6 -47 0 -16 -6 -35 -12 -42 -9 -11 -8 -14
2 -14 11 0 11 -2 -1 -10 -19 -12 -6 -34 38 -62 l32 -20 -2 33 c-2 23 1 33 10
32 6 -2 12 2 12 7 0 6 -7 10 -15 10 -10 0 -15 11 -16 33 0 27 -2 29 -9 12 -6
-15 -9 -6 -9 33 -1 50 -15 71 -24 35z"/>
<path d="M1015 1154 c-3 -20 -4 -38 -2 -40 7 -7 36 59 31 68 -11 17 -22 6 -29
-28z"/>
<path d="M3717 1183 c-2 -5 1 -18 8 -30 10 -20 14 -21 30 -9 16 12 17 16 6 30
-14 17 -37 21 -44 9z"/>
<path d="M810 1169 c0 -5 5 -7 10 -4 6 3 10 8 10 11 0 2 -4 4 -10 4 -5 0 -10
-5 -10 -11z"/>
<path d="M3218 1133 c7 -3 16 -2 19 1 4 3 -2 6 -13 5 -11 0 -14 -3 -6 -6z"/>
<path d="M3158 1123 c7 -3 16 -2 19 1 4 3 -2 6 -13 5 -11 0 -14 -3 -6 -6z"/>
<path d="M3198 1113 c7 -3 16 -2 19 1 4 3 -2 6 -13 5 -11 0 -14 -3 -6 -6z"/>
<path d="M3308 1113 c7 -3 16 -2 19 1 4 3 -2 6 -13 5 -11 0 -14 -3 -6 -6z"/>
<path d="M3105 1074 c-3 -20 -5 -37 -3 -39 2 -1 57 -14 124 -28 127 -28 284
-76 347 -108 41 -22 42 -21 50 43 5 36 4 37 -38 54 -24 9 -49 13 -56 9 -7 -5
-10 -4 -6 2 8 12 -103 46 -258 78 -155 32 -151 32 -160 -11z"/>
<path d="M3243 1103 c9 -2 23 -2 30 0 6 3 -1 5 -18 5 -16 0 -22 -2 -12 -5z"/>
<path d="M3308 1093 c7 -3 16 -2 19 1 4 3 -2 6 -13 5 -11 0 -14 -3 -6 -6z"/>
<path d="M376 1071 c-17 -18 -22 -41 -8 -41 13 1 42 27 42 38 0 20 -17 22 -34
3z"/>
<path d="M3360 1080 c34 -11 60 -11 35 0 -11 5 -29 8 -40 8 -16 0 -15 -2 5 -8z"/>
<path d="M650 1071 c-8 -5 -37 -12 -63 -15 -41 -6 -46 -10 -36 -22 7 -9 20
-12 33 -8 40 11 86 35 86 44 0 12 -1 12 -20 1z"/>
<path d="M3440 1073 c-18 -4 -1 -12 65 -34 49 -15 91 -27 93 -24 2 2 -28 14
-68 26 -52 17 -66 25 -53 30 20 9 3 9 -37 2z"/>
<path d="M3563 1068 c16 -6 33 -6 37 -2 5 5 -7 10 -28 10 -37 2 -37 2 -9 -8z"/>
<path d="M3560 1045 c35 -13 66 -22 69 -20 4 5 2 6 -68 30 -71 24 -72 16 -1
-10z"/>
<path d="M831 1023 c0 -24 4 -43 9 -43 6 0 10 7 10 15 0 8 9 15 20 15 11 0 20
4 20 9 0 4 -11 6 -24 4 -19 -4 -25 0 -29 18 -2 14 -5 6 -6 -18z"/>
<path d="M1050 1025 c0 -30 15 -33 30 -6 14 27 13 31 -10 31 -15 0 -20 -7 -20
-25z"/>
<path d="M282 1016 c7 -8 17 -12 22 -9 4 3 2 9 -5 14 -22 13 -31 11 -17 -5z"/>
<path d="M1005 1020 c-3 -5 -2 -10 4 -10 5 0 13 5 16 10 3 6 2 10 -4 10 -5 0
-13 -4 -16 -10z"/>
<path d="M920 990 c-5 -99 2 -155 18 -168 15 -12 17 -9 20 18 2 20 -3 39 -13
50 -10 11 -15 25 -12 32 4 8 6 7 6 -4 1 -21 17 -24 24 -5 4 9 6 9 6 -1 1 -8 6
-10 14 -6 9 6 9 4 -1 -8 -11 -14 -10 -18 7 -27 25 -14 28 -14 34 3 4 10 -1 12
-16 9 -20 -4 -20 -3 -4 7 22 14 14 27 -26 44 l-32 14 29 1 28 1 -23 25 c-13
13 -29 25 -36 25 -6 0 -14 6 -16 13 -3 6 -6 -4 -7 -23z"/>
<path d="M206 996 c3 -9 11 -16 16 -16 13 0 5 23 -10 28 -7 2 -10 -2 -6 -12z"/>
<path d="M3138 1003 c7 -3 16 -2 19 1 4 3 -2 6 -13 5 -11 0 -14 -3 -6 -6z"/>
<path d="M3615 1000 c3 -5 8 -10 11 -10 2 0 4 5 4 10 0 6 -5 10 -11 10 -5 0
-7 -4 -4 -10z"/>
<path d="M1071 983 c-7 -8 -11 -16 -8 -19 2 -2 10 2 17 11 17 20 9 27 -9 8z"/>
<path d="M3100 996 c0 -2 7 -7 16 -10 8 -3 12 -2 9 4 -6 10 -25 14 -25 6z"/>
<path d="M3178 993 c6 -2 18 -2 25 0 6 3 1 5 -13 5 -14 0 -19 -2 -12 -5z"/>
<path d="M264 975 c21 -16 32 -13 21 4 -3 6 -14 11 -23 11 -15 -1 -15 -2 2
-15z"/>
<path d="M325 980 c-3 -5 -1 -10 4 -10 6 0 11 5 11 10 0 6 -2 10 -4 10 -3 0
-8 -4 -11 -10z"/>
<path d="M880 970 c0 -21 -24 -28 -35 -10 -5 8 -11 7 -21 -1 -12 -10 -12 -14
-2 -20 9 -6 7 -9 -7 -9 -18 -1 -17 -2 5 -15 18 -10 20 -14 8 -15 -37 0 -31
-50 6 -50 17 0 19 -2 6 -11 -11 -8 -8 -9 15 -5 28 6 29 5 11 -9 -19 -15 -19
-15 1 -15 12 0 24 3 27 8 6 9 -19 44 -27 36 -3 -3 -17 2 -31 12 -31 19 -28 31
3 14 17 -9 25 -8 37 5 14 13 13 15 -6 15 -18 0 -19 3 -10 20 6 11 15 18 21 15
5 -4 9 8 9 24 0 17 -2 31 -5 31 -3 0 -5 -9 -5 -20z"/>
<path d="M1259 978 c-5 -13 -3 -108 3 -108 9 0 15 101 6 107 -5 2 -8 3 -9 1z"/>
<path d="M3100 970 c13 -9 13 -10 0 -10 -13 0 -13 -1 0 -10 8 -5 22 -9 30 -9
10 0 8 3 -5 9 l-20 9 20 1 20 1 -20 9 c-27 12 -43 12 -25 0z"/>
<path d="M3180 960 c-20 -6 -21 -8 -5 -8 11 0 29 3 40 8 25 11 -1 11 -35 0z"/>
<path d="M3320 960 c14 -4 34 -8 45 -8 16 0 15 2 -5 8 -14 4 -34 8 -45 8 -16
0 -15 -2 5 -8z"/>
<path d="M1015 941 c-3 -5 -2 -12 3 -15 5 -3 9 1 9 9 0 17 -3 19 -12 6z"/>
<path d="M1072 941 c-11 -7 -11 -9 2 -14 10 -4 16 -1 16 8 0 17 -1 17 -18 6z"/>
<path d="M3315 940 c11 -5 27 -9 35 -9 9 0 8 4 -5 9 -11 5 -27 9 -35 9 -9 0
-8 -4 5 -9z"/>
<path d="M3400 941 c12 -9 10 -11 -10 -11 -16 -1 -2 -9 40 -24 36 -13 73 -27
83 -31 9 -4 17 -5 17 -2 0 3 -28 16 -62 28 -34 13 -57 24 -51 26 6 2 50 -12
99 -32 88 -35 113 -43 83 -25 -22 13 -157 66 -189 75 -19 5 -21 4 -10 -4z"/>
<path d="M3158 933 c7 -3 16 -2 19 1 4 3 -2 6 -13 5 -11 0 -14 -3 -6 -6z"/>
<path d="M3265 930 c11 -5 29 -8 40 -8 16 0 15 2 -5 8 -34 11 -60 11 -35 0z"/>
<path d="M3075 856 c-4 -40 -4 -83 -1 -94 5 -15 -1 -28 -23 -49 -42 -40 -62
-82 -50 -105 5 -10 16 -18 24 -18 8 0 22 -8 32 -18 24 -25 51 -34 59 -20 5 7
10 3 16 -11 7 -20 13 -22 44 -17 28 6 38 3 52 -13 9 -12 26 -22 38 -24 12 -1
33 -10 47 -20 15 -9 44 -17 66 -17 30 0 43 -5 51 -20 6 -11 21 -20 33 -20 12
0 40 -7 64 -16 23 -9 53 -14 66 -10 21 5 24 10 20 43 -2 21 -11 51 -19 67 -17
36 -14 39 20 27 36 -14 33 -1 -7 27 l-34 22 13 68 c19 95 18 131 -3 139 -10 3
-46 19 -81 34 -85 39 -359 119 -405 119 -12 0 -17 -18 -22 -74z m65 -130 c0
-3 -4 -8 -10 -11 -5 -3 -10 -1 -10 4 0 6 5 11 10 11 6 0 10 -2 10 -4z m287
-72 c-3 -3 -12 -4 -19 -1 -8 3 -5 6 6 6 11 1 17 -2 13 -5z m61 -30 c34 -17 43
-28 15 -17 -33 13 -68 33 -57 33 6 0 25 -7 42 -16z"/>
<path d="M3205 920 c11 -5 31 -8 45 -8 l25 0 -25 8 c-14 4 -34 8 -45 8 l-20 1
20 -9z"/>
<path d="M5185 920 c-3 -5 -1 -10 4 -10 6 0 11 5 11 10 0 6 -2 10 -4 10 -3 0
-8 -4 -11 -10z"/>
<path d="M5592 918 c3 -7 13 -13 24 -14 16 -1 16 0 1 3 -9 3 -15 9 -12 14 4 5
1 9 -5 9 -7 0 -10 -6 -8 -12z"/>
<path d="M3405 890 c44 -15 106 -40 139 -54 32 -15 60 -25 62 -23 9 9 -244
108 -270 106 -6 0 25 -13 69 -29z"/>
<path d="M5215 910 c3 -5 8 -10 11 -10 2 0 4 5 4 10 0 6 -5 10 -11 10 -5 0 -7
-4 -4 -10z"/>
<path d="M577 894 c-28 -15 -28 -16 -11 -35 21 -23 34 -24 34 -3 0 10 6 13 19
9 21 -6 51 3 51 16 0 6 -8 5 -19 -1 -27 -14 -56 -3 -40 16 15 18 1 17 -34 -2z"/>
<path d="M1065 900 c-3 -5 1 -10 9 -10 9 0 16 5 16 10 0 6 -4 10 -9 10 -6 0
-13 -4 -16 -10z"/>
<path d="M1352 890 c0 -14 2 -19 5 -12 2 6 2 18 0 25 -3 6 -5 1 -5 -13z"/>
<path d="M3295 900 c11 -5 27 -9 35 -9 9 0 8 4 -5 9 -11 5 -27 9 -35 9 -9 0
-8 -4 5 -9z"/>
<path d="M5280 900 c0 -5 5 -10 10 -10 6 0 10 5 10 10 0 6 -4 10 -10 10 -5 0
-10 -4 -10 -10z"/>
<path d="M5391 901 c-14 -4 -26 -11 -28 -17 -5 -16 70 -11 87 5 13 13 13 14
-1 9 -9 -4 -20 -3 -25 1 -5 5 -20 5 -33 2z"/>
<path d="M5573 886 c0 -8 6 -12 14 -9 7 3 10 9 7 14 -8 14 -21 11 -21 -5z"/>
<path d="M3395 872 c28 -11 83 -34 123 -51 41 -18 76 -31 78 -29 5 6 -185 85
-221 92 -16 4 -7 -2 20 -12z"/>
<path d="M1050 871 c0 -5 9 -7 20 -4 11 3 20 7 20 9 0 2 -9 4 -20 4 -11 0 -20
-4 -20 -9z"/>
<path d="M3547 859 c7 -7 15 -10 18 -7 3 3 -2 9 -12 12 -14 6 -15 5 -6 -5z"/>
<path d="M5423 852 c-34 -18 -46 -39 -15 -27 9 4 33 9 52 11 41 6 49 12 30 24
-20 13 -29 12 -67 -8z"/>
<path d="M5025 851 c-6 -11 9 -23 19 -14 9 9 7 23 -3 23 -6 0 -12 -4 -16 -9z"/>
<path d="M5110 849 c0 -5 5 -7 10 -4 6 3 10 8 10 11 0 2 -4 4 -10 4 -5 0 -10
-5 -10 -11z"/>
<path d="M683 815 c0 -22 2 -30 4 -17 2 12 2 30 0 40 -3 9 -5 -1 -4 -23z"/>
<path d="M782 841 c2 -7 7 -12 11 -12 12 1 9 15 -3 20 -7 2 -11 -2 -8 -8z"/>
<path d="M615 830 c3 -5 8 -10 11 -10 2 0 4 5 4 10 0 6 -5 10 -11 10 -5 0 -7
-4 -4 -10z"/>
<path d="M5050 830 c0 -5 4 -10 9 -10 6 0 13 5 16 10 3 6 -1 10 -9 10 -9 0
-16 -4 -16 -10z"/>
<path d="M1260 830 c-6 -32 -1 -165 7 -167 7 -3 9 12 6 41 -6 46 9 82 28 70 5
-3 9 0 9 5 0 6 -7 11 -15 11 -9 0 -20 10 -25 23 -5 12 -9 20 -10 17z"/>
<path d="M5580 820 c0 -13 18 -22 24 -11 3 5 -1 11 -9 15 -8 3 -15 1 -15 -4z"/>
<path d="M746 812 c-3 -4 12 -8 32 -9 28 0 32 1 17 7 -27 11 -43 12 -49 2z"/>
<path d="M1022 800 c0 -14 2 -19 5 -12 2 6 2 18 0 25 -3 6 -5 1 -5 -13z"/>
<path d="M5075 810 c-3 -5 1 -10 10 -10 9 0 13 5 10 10 -3 6 -8 10 -10 10 -2
0 -7 -4 -10 -10z"/>
<path d="M1332 801 c-18 -11 -11 -56 8 -56 10 0 15 11 16 33 1 34 -2 37 -24
23z"/>
<path d="M940 786 c0 -9 5 -16 10 -16 6 0 10 4 10 9 0 6 -4 13 -10 16 -5 3
-10 -1 -10 -9z"/>
<path d="M540 780 c0 -5 21 -10 48 -9 38 1 42 2 22 9 -36 12 -70 12 -70 0z"/>
<path d="M910 774 c0 -8 5 -12 10 -9 6 4 8 11 5 16 -9 14 -15 11 -15 -7z"/>
<path d="M5500 770 c0 -17 2 -19 14 -8 14 13 12 28 -5 28 -5 0 -9 -9 -9 -20z"/>
<path d="M5618 773 c7 -3 16 -2 19 1 4 3 -2 6 -13 5 -11 0 -14 -3 -6 -6z"/>
<path d="M4880 756 c0 -7 7 -19 15 -26 9 -8 15 -8 15 -2 0 6 -6 13 -12 15 -10
4 -9 8 2 16 13 9 13 11 -2 11 -10 0 -18 -6 -18 -14z"/>
<path d="M940 740 c0 -5 5 -10 10 -10 6 0 10 5 10 10 0 6 -4 10 -10 10 -5 0
-10 -4 -10 -10z"/>
<path d="M240 730 c0 -5 5 -10 10 -10 6 0 10 5 10 10 0 6 -4 10 -10 10 -5 0
-10 -4 -10 -10z"/>
<path d="M310 730 c0 -5 5 -10 10 -10 6 0 10 5 10 10 0 6 -4 10 -10 10 -5 0
-10 -4 -10 -10z"/>
<path d="M738 708 c2 -15 10 -28 16 -28 7 0 12 13 12 28 0 19 -5 28 -16 28
-12 0 -15 -7 -12 -28z"/>
<path d="M870 720 c0 -5 5 -10 11 -10 5 0 7 5 4 10 -3 6 -8 10 -11 10 -2 0 -4
-4 -4 -10z"/>
<path d="M5581 712 c31 -24 59 -34 59 -22 0 6 -7 10 -16 10 -8 0 -22 7 -30 15
-9 8 -20 15 -26 15 -6 0 0 -8 13 -18z"/>
<path d="M461 704 c0 -11 3 -14 6 -6 3 7 2 16 -1 19 -3 4 -6 -2 -5 -13z"/>
<path d="M560 710 c0 -5 7 -7 15 -4 8 4 15 8 15 10 0 2 -7 4 -15 4 -8 0 -15
-4 -15 -10z"/>
<path d="M800 704 c-23 -12 -23 -14 -4 -14 11 0 29 7 40 15 25 19 -1 19 -36
-1z"/>
<path d="M5510 705 c-8 -9 -8 -15 -2 -15 12 0 26 19 19 26 -2 2 -10 -2 -17
-11z"/>
<path d="M633 694 c0 -16 6 -17 25 -5 11 6 9 9 -5 13 -12 3 -20 0 -20 -8z"/>
<path d="M1055 699 c-11 -17 1 -21 15 -4 8 9 8 15 2 15 -6 0 -14 -5 -17 -11z"/>
<path d="M575 690 c-4 -6 -10 -8 -15 -5 -5 3 -11 1 -14 -4 -13 -20 15 -21 36
-2 12 12 17 21 10 21 -6 0 -14 -5 -17 -10z"/>
<path d="M893 689 c-18 -5 -33 -12 -33 -15 0 -9 53 5 65 17 10 10 11 10 -32
-2z"/>
<path d="M1020 686 c0 -17 -40 -29 -55 -16 -7 6 -11 2 -12 -11 -2 -16 2 -19
15 -14 9 4 29 12 45 17 25 9 39 38 17 38 -5 0 -10 -6 -10 -14z"/>
<path d="M5450 690 c0 -5 5 -10 10 -10 6 0 10 5 10 10 0 6 -4 10 -10 10 -5 0
-10 -4 -10 -10z"/>
<path d="M605 680 c-3 -5 -1 -10 4 -10 6 0 11 5 11 10 0 6 -2 10 -4 10 -3 0
-8 -4 -11 -10z"/>
<path d="M4968 673 c7 -3 16 -2 19 1 4 3 -2 6 -13 5 -11 0 -14 -3 -6 -6z"/>
<path d="M252 658 c-7 -7 -12 -27 -12 -46 0 -26 4 -33 18 -30 13 2 17 13 17
42 0 42 -6 51 -23 34z"/>
<path d="M411 654 c0 -11 3 -14 6 -6 3 7 2 16 -1 19 -3 4 -6 -2 -5 -13z"/>
<path d="M310 635 c0 -14 4 -25 9 -25 5 0 9 11 9 25 0 14 -4 25 -9 25 -5 0 -9
-11 -9 -25z"/>
<path d="M568 643 c7 -3 16 -2 19 1 4 3 -2 6 -13 5 -11 0 -14 -3 -6 -6z"/>
<path d="M720 630 c-26 -21 -45 -26 -36 -11 4 5 -3 7 -15 4 -14 -4 -17 -8 -8
-13 8 -6 5 -11 -10 -19 -17 -10 -21 -9 -21 4 0 8 -4 15 -8 15 -15 0 -30 -23
-25 -37 5 -13 2 -13 -15 -4 -26 14 -35 14 -26 0 4 -8 0 -9 -15 -4 -17 5 -21 2
-21 -14 0 -12 5 -21 12 -21 14 0 77 19 100 31 10 5 30 9 44 9 18 0 25 4 21 14
-6 16 36 42 52 32 6 -4 11 -2 11 3 0 6 -5 11 -11 11 -5 0 -7 5 -4 10 9 14 3
12 -25 -10z"/>
<path d="M1350 602 c0 -12 19 -26 26 -19 2 2 -2 10 -11 17 -9 8 -15 8 -15 2z"/>
<path d="M2855 600 c3 -5 16 -10 28 -10 18 0 19 2 7 10 -20 13 -43 13 -35 0z"/>
<path d="M5540 580 c0 -5 5 -10 10 -10 6 0 10 5 10 10 0 6 -4 10 -10 10 -5 0
-10 -4 -10 -10z"/>
<path d="M440 560 c-35 -8 -38 -36 -4 -44 30 -8 33 -6 39 22 5 26 -2 31 -35
22z"/>
<path d="M1409 541 c16 -16 31 -35 34 -43 2 -7 8 -10 12 -5 9 7 -52 77 -67 77
-4 0 6 -13 21 -29z"/>
<path d="M5588 563 c7 -3 16 -2 19 1 4 3 -2 6 -13 5 -11 0 -14 -3 -6 -6z"/>
<path d="M2850 550 c0 -5 7 -10 15 -10 8 0 15 5 15 10 0 6 -7 10 -15 10 -8 0
-15 -4 -15 -10z"/>
<path d="M131 541 c-10 -6 -10 -10 -1 -16 13 -8 24 -1 19 14 -3 6 -10 7 -18 2z"/>
<path d="M66 525 c-10 -8 -24 -16 -30 -18 -21 -8 2 -18 26 -12 14 4 24 14 25
26 2 22 3 22 -21 4z"/>
<path d="M307 509 c-3 -13 -1 -19 6 -16 15 5 22 37 9 37 -5 0 -12 -9 -15 -21z"/>
<path d="M380 510 c0 -11 4 -20 8 -20 4 0 8 9 8 20 0 11 -4 20 -8 20 -4 0 -8
-9 -8 -20z"/>
<path d="M247 513 c-4 -3 -7 -18 -7 -32 l1 -26 19 24 c11 12 17 27 14 32 -6
11 -18 12 -27 2z"/>
<path d="M3658 503 c7 -3 16 -2 19 1 4 3 -2 6 -13 5 -11 0 -14 -3 -6 -6z"/>
<path d="M3704 496 c11 -9 24 -16 30 -16 12 0 7 5 -24 19 -24 11 -24 11 -6 -3z"/>
<path d="M1541 483 c34 -44 104 -103 121 -103 20 0 24 -15 7 -26 -8 -4 -7 -9
2 -15 22 -13 33 -11 20 5 -9 11 -9 15 1 19 7 2 11 6 8 8 -57 46 -91 69 -99 69
-6 0 -11 6 -11 14 0 8 -9 18 -20 21 -11 3 -20 11 -20 16 0 5 -5 9 -11 9 -8 0
-7 -6 2 -17z"/>
<path d="M115 479 c-3 -3 -23 -9 -45 -13 -26 -4 -40 -11 -40 -21 0 -8 5 -15
11 -15 8 0 7 -5 -1 -15 -20 -25 -8 -25 59 -5 34 11 71 20 82 20 15 0 19 7 19
30 0 30 -2 31 -41 28 -22 -1 -42 -5 -44 -9z"/>
<path d="M1470 480 c0 -5 5 -10 11 -10 5 0 7 5 4 10 -3 6 -8 10 -11 10 -2 0
-4 -4 -4 -10z"/>
<path d="M308 473 c7 -3 16 -2 19 1 4 3 -2 6 -13 5 -11 0 -14 -3 -6 -6z"/>
<path d="M4890 445 c7 -9 15 -13 17 -11 7 7 -7 26 -19 26 -6 0 -6 -6 2 -15z"/>
<path d="M5550 435 c7 -8 17 -12 22 -9 6 4 5 10 -3 15 -22 14 -33 10 -19 -6z"/>
<path d="M1531 416 c2 -3 33 -37 69 -77 98 -110 127 -139 139 -139 19 0 12 18
-9 25 -11 3 -20 10 -20 14 0 12 -164 181 -175 181 -4 0 -6 -2 -4 -4z"/>
<path d="M4975 410 c-16 -7 -17 -9 -3 -9 9 -1 20 4 23 9 7 11 7 11 -20 0z"/>
<path d="M5238 413 c7 -3 16 -2 19 1 4 3 -2 6 -13 5 -11 0 -14 -3 -6 -6z"/>
<path d="M5404 403 c10 -11 37 -12 30 -2 -3 5 -12 9 -21 9 -9 0 -13 -3 -9 -7z"/>
<path d="M5478 403 c7 -3 16 -2 19 1 4 3 -2 6 -13 5 -11 0 -14 -3 -6 -6z"/>
<path d="M3993 393 c9 -2 23 -2 30 0 6 3 -1 5 -18 5 -16 0 -22 -2 -12 -5z"/>
<path d="M4063 393 c9 -2 23 -2 30 0 6 3 -1 5 -18 5 -16 0 -22 -2 -12 -5z"/>
<path d="M4805 390 c-3 -5 1 -10 9 -10 9 0 16 5 16 10 0 6 -4 10 -9 10 -6 0
-13 -4 -16 -10z"/>
<path d="M5060 390 c0 -5 5 -10 11 -10 5 0 7 5 4 10 -3 6 -8 10 -11 10 -2 0
-4 -4 -4 -10z"/>
<path d="M2630 380 c0 -6 6 -13 14 -16 11 -4 13 -12 5 -31 -13 -34 -11 -41 6
-19 7 10 18 15 23 12 6 -3 9 1 8 10 -1 9 -12 22 -25 28 -12 7 -18 15 -15 19 4
4 2 7 -4 7 -7 0 -12 -5 -12 -10z"/>
<path d="M5375 380 c3 -5 8 -10 11 -10 2 0 4 5 4 10 0 6 -5 10 -11 10 -5 0 -7
-4 -4 -10z"/>
<path d="M5418 373 c7 -3 16 -2 19 1 4 3 -2 6 -13 5 -11 0 -14 -3 -6 -6z"/>
<path d="M2700 360 c0 -5 5 -10 11 -10 5 0 7 5 4 10 -3 6 -8 10 -11 10 -2 0
-4 -4 -4 -10z"/>
<path d="M2726 343 c-6 -14 -5 -15 5 -6 7 7 10 15 7 18 -3 3 -9 -2 -12 -12z"/>
<path d="M4718 353 c7 -3 16 -2 19 1 4 3 -2 6 -13 5 -11 0 -14 -3 -6 -6z"/>
<path d="M5370 350 c20 -13 33 -13 25 0 -3 6 -14 10 -23 10 -15 0 -15 -2 -2
-10z"/>
<path d="M2536 315 c-4 -11 0 -14 17 -12 12 2 16 2 10 0 -24 -8 -13 -22 18
-21 16 1 26 4 21 7 -4 3 -11 14 -15 24 -8 21 -43 23 -51 2z"/>
<path d="M4777 303 c-7 -11 10 -40 18 -31 4 4 3 14 -3 24 -5 9 -12 12 -15 7z"/>
<path d="M1730 290 c0 -5 5 -10 10 -10 6 0 10 5 10 10 0 6 -4 10 -10 10 -5 0
-10 -4 -10 -10z"/>
<path d="M2665 290 c-3 -5 1 -10 9 -10 9 0 16 5 16 10 0 6 -4 10 -9 10 -6 0
-13 -4 -16 -10z"/>
<path d="M5115 290 c11 -5 27 -9 35 -9 13 -1 13 0 0 9 -8 5 -24 9 -35 9 l-20
0 20 -9z"/>
<path d="M2515 279 c-11 -16 -1 -19 13 -3 7 8 8 14 3 14 -5 0 -13 -5 -16 -11z"/>
<path d="M2705 270 c3 -5 10 -10 16 -10 5 0 9 5 9 10 0 6 -7 10 -16 10 -8 0
-12 -4 -9 -10z"/>
<path d="M2830 269 c0 -5 5 -7 10 -4 6 3 10 8 10 11 0 2 -4 4 -10 4 -5 0 -10
-5 -10 -11z"/>
<path d="M2560 255 c0 -9 6 -12 15 -9 8 4 15 10 15 15 0 5 -7 9 -15 9 -8 0
-15 -7 -15 -15z"/>
<path d="M1777 244 c10 -7 14 -14 9 -14 -5 0 10 -14 32 -30 23 -17 42 -34 42
-39 0 -5 19 -21 43 -35 23 -14 36 -25 28 -26 -8 0 -2 -9 13 -21 15 -12 30 -19
33 -15 4 3 1 6 -5 6 -7 0 -12 5 -12 11 0 8 4 8 14 -1 8 -6 12 -18 9 -27 -5
-12 -1 -14 16 -8 14 4 23 2 27 -9 3 -9 14 -16 23 -16 10 0 1 13 -27 39 -23 21
-42 44 -42 50 0 6 -3 10 -7 10 -21 -3 -43 2 -55 14 -7 7 -21 16 -30 20 -10 3
-18 11 -18 17 0 7 6 8 19 0 28 -15 35 -12 17 6 -9 8 -16 22 -16 30 0 8 -10 14
-25 14 -18 0 -25 5 -25 19 0 15 -8 18 -40 18 -36 0 -38 -1 -23 -13z"/>
<path d="M2458 244 c-38 -20 -35 -41 5 -35 4 0 7 -3 7 -9 0 -13 41 -60 53 -60
4 0 1 7 -8 16 -9 9 -14 23 -11 31 3 8 6 18 6 21 0 4 4 1 9 -6 5 -9 8 -3 7 17
-1 17 -4 31 -8 31 -3 0 -12 2 -20 5 -7 2 -25 -2 -40 -11z m47 -4 c3 -5 1 -10
-4 -10 -6 0 -11 5 -11 10 0 6 2 10 4 10 3 0 8 -4 11 -10z m-15 -15 c17 -20 7
-30 -11 -12 -8 7 -21 12 -29 10 -13 -4 -13 -3 0 6 20 14 25 14 40 -4z"/>
<path d="M4640 250 c0 -5 5 -10 11 -10 5 0 7 5 4 10 -3 6 -8 10 -11 10 -2 0
-4 -4 -4 -10z"/>
<path d="M2680 240 c0 -5 5 -10 11 -10 5 0 7 5 4 10 -3 6 -8 10 -11 10 -2 0
-4 -4 -4 -10z"/>
<path d="M2958 243 c7 -3 16 -2 19 1 4 3 -2 6 -13 5 -11 0 -14 -3 -6 -6z"/>
<path d="M2640 230 c0 -5 5 -10 11 -10 5 0 7 5 4 10 -3 6 -8 10 -11 10 -2 0
-4 -4 -4 -10z"/>
<path d="M4880 236 c0 -2 9 -6 20 -9 11 -3 20 -1 20 4 0 5 -9 9 -20 9 -11 0
-20 -2 -20 -4z"/>
<path d="M4830 211 c0 -5 7 -11 15 -15 8 -3 15 -1 15 3 0 5 -7 11 -15 15 -8 3
-15 1 -15 -3z"/>
<path d="M2650 190 c0 -5 5 -10 10 -10 6 0 10 5 10 10 0 6 -4 10 -10 10 -5 0
-10 -4 -10 -10z"/>
<path d="M5325 190 c-3 -5 -1 -10 4 -10 6 0 11 5 11 10 0 6 -2 10 -4 10 -3 0
-8 -4 -11 -10z"/>
<path d="M5465 190 c27 -12 43 -12 25 0 -8 5 -22 9 -30 9 -10 0 -8 -3 5 -9z"/>
<path d="M1756 178 c22 -37 69 -88 81 -88 18 0 17 16 -3 32 -8 7 -27 25 -41
41 -27 28 -50 37 -37 15z"/>
<path d="M4797 169 c7 -7 15 -10 18 -7 3 3 -2 9 -12 12 -14 6 -15 5 -6 -5z"/>
<path d="M2435 150 c-3 -5 -2 -10 4 -10 5 0 13 5 16 10 3 6 2 10 -4 10 -5 0
-13 -4 -16 -10z"/>
<path d="M5018 153 c7 -3 16 -2 19 1 4 3 -2 6 -13 5 -11 0 -14 -3 -6 -6z"/>
<path d="M5565 150 c3 -5 11 -10 16 -10 6 0 7 5 4 10 -3 6 -11 10 -16 10 -6 0
-7 -4 -4 -10z"/>
<path d="M4760 140 c0 -6 7 -10 15 -10 8 0 15 2 15 4 0 2 -7 6 -15 10 -8 3
-15 1 -15 -4z"/>
<path d="M2568 133 c7 -3 16 -2 19 1 4 3 -2 6 -13 5 -11 0 -14 -3 -6 -6z"/>
<path d="M4655 130 c3 -5 11 -10 16 -10 6 0 7 5 4 10 -3 6 -11 10 -16 10 -6 0
-7 -4 -4 -10z"/>
<path d="M2862 105 c-1 -18 3 -25 15 -25 13 0 14 3 6 11 -6 6 -9 18 -6 25 3 8
1 14 -4 14 -5 0 -10 -11 -11 -25z"/>
<path d="M4630 110 c0 -5 5 -10 11 -10 5 0 7 5 4 10 -3 6 -8 10 -11 10 -2 0
-4 -4 -4 -10z"/>
<path d="M5535 110 c3 -5 8 -10 11 -10 2 0 4 5 4 10 0 6 -5 10 -11 10 -5 0 -7
-4 -4 -10z"/>
<path d="M1857 83 c-13 -12 -7 -25 9 -19 9 3 12 2 9 -4 -9 -15 36 -60 60 -59
11 0 14 3 8 6 -7 2 -13 10 -13 17 0 12 -50 66 -61 66 -3 0 -9 -3 -12 -7z"/>
<path d="M5530 70 c0 -13 28 -25 38 -16 3 4 0 11 -8 16 -20 13 -30 12 -30 0z"/>
<path d="M3190 59 c0 -5 5 -7 10 -4 6 3 10 8 10 11 0 2 -4 4 -10 4 -5 0 -10
-5 -10 -11z"/>
<path d="M3240 60 c0 -13 27 -13 35 0 3 6 -3 10 -14 10 -12 0 -21 -4 -21 -10z"/>
<path d="M5000 60 c0 -5 5 -10 11 -10 5 0 7 5 4 10 -3 6 -8 10 -11 10 -2 0 -4
-4 -4 -10z"/>
<path d="M4815 50 c3 -5 8 -10 11 -10 2 0 4 5 4 10 0 6 -5 10 -11 10 -5 0 -7
-4 -4 -10z"/>
<path d="M2550 40 c0 -5 7 -7 15 -4 8 4 15 8 15 10 0 2 -7 4 -15 4 -8 0 -15
-4 -15 -10z"/>
<path d="M2770 39 c0 -5 5 -7 10 -4 6 3 10 8 10 11 0 2 -4 4 -10 4 -5 0 -10
-5 -10 -11z"/>
<path d="M4538 43 c7 -3 16 -2 19 1 4 3 -2 6 -13 5 -11 0 -14 -3 -6 -6z"/>
<path d="M4700 42 c0 -5 7 -13 16 -16 10 -4 14 -1 12 6 -5 15 -28 23 -28 10z"/>
<path d="M2450 30 c0 -5 5 -10 10 -10 6 0 10 5 10 10 0 6 -4 10 -10 10 -5 0
-10 -4 -10 -10z"/>
<path d="M3340 20 c0 -5 5 -10 11 -10 5 0 7 5 4 10 -3 6 -8 10 -11 10 -2 0 -4
-4 -4 -10z"/>
<path d="M2475 10 c-3 -5 1 -10 9 -10 9 0 16 5 16 10 0 6 -4 10 -9 10 -6 0
-13 -4 -16 -10z"/>
<path d="M5210 10 c0 -5 5 -10 10 -10 6 0 10 5 10 10 0 6 -4 10 -10 10 -5 0
-10 -4 -10 -10z"/>
</g>
</svg>
